{"title":"Annabelle 2014 [DVD Ready.VOB]-PYRORECORDINGS","uid":11675503,"size":3443083264,"categoryP":"video","categoryS":"movies","magnet":"?xt=urn:btih:50dbd1581752d46908eeb2e573aaaf674ef35784&amp;dn=Annabelle+2014+%5BDVD+Ready.VOB%5D-PYRORECORDINGS&amp;tr=udp%3A%2F%2Ftracker.openbittorrent.com%3A80&amp;tr=udp%3A%2F%2Fopen.demonii.com%3A1337&amp;tr=udp%3A%2F%2Ftracker.coppersurfer.tk%3A6969&amp;tr=udp%3A%2F%2Fexodus.desync.com%3A6969","seeders":4,"leechers":1,"uploader":"Pyro4vida","files":8,"time":1422842148,"description":"JUST DOWNLOAD AND BURN.! DVD READY..!\n\nJohn Form (Ward Horton) thinks he's found the perfect gift for his expectant wife, Mia (Annabelle Wallis) : a vintage doll in a beautiful white dress. However, the couple's delight doesn't last long: One terrible night, devil worshippers invade their home and launch a violent attack against the couple. When the cultists try to summon a demon, they smear a bloody rune on the nursery wall and drip blood on Mia's doll, thereby turning the former object of beauty into a conduit for ultimate evil.\n\n\n\nANNABELLE_2014_DVDVIDEO_TSVTS.VOB\nFormat                                   : MPEG-PS\nFile size                                : 3.20gb\nDuration                                 : 1h 39m\nOverall bit rate mode                    : Variable\nOverall bit rate                         : 4 686 Kbps\nWriting library                          : encoded by TMPGEnc Authoring Works 4 Version. 4.0.7.32\n\nVideo\nID                                       : 224 (0xE0)\nFormat                                   : MPEG Video\nFormat version                           : Version 2\nFormat profile                           : Main@Main\nFormat settings, BVOP                    : Yes\nFormat settings, Matrix                  : Custom\nDuration                                 : 30mn 32s\nBit rate mode                            : Variable\nBit rate                                 : 4 369 Kbps\nMaximum bit rate                         : 7 774 Kbps\nWidth                                    : 720 pixels\nHeight                                   : 480 pixels\nDisplay aspect ratio                     : 16:9\nFrame rate                               : 23.976 fps\nStandard                                 : NTSC\nColor space                              : YUV\nChroma subsampling                       : 4:2:0\nBit depth                                : 8 bits\nScan type                                : Progressive\nScan order                               : 2:3 Pulldown\nCompression mode                         : Lossy\nBits/(Pixel*Frame)                       : 0.527\nStream size                              : 955 MiB (93%)\nWriting library                          : TMPGEnc Authoring Works 4 Version. 4.0.7.32\n\nAudio\nID                                       : 189 (0xBD)-128 (0x80)\nFormat                                   : AC-3\nFormat/Info                              : Audio Coding 3\nMode extension                           : CM (complete main)\nMuxing mode                              : DVD-Video\nDuration                                 : 30mn 32s\nBit rate mode                            : Constant\nBit rate                                 : 224 Kbps\nChannel(s)                               : 2 channels\nChannel positions                        : Front: L R\nSampling rate                            : 48.0 KHz\nBit depth                                : 16 bits\nCompression mode                         : Lossy\nStream size                              : 48.9 MiB (5%)","torrent":{"xt":"urn:btih:50dbd1581752d46908eeb2e573aaaf674ef35784","amp;dn":"Annabelle+2014+%5BDVD+Ready.VOB%5D-PYRORECORDINGS","amp;tr":["udp%3A%2F%2Ftracker.openbittorrent.com%3A80","udp%3A%2F%2Fopen.demonii.com%3A1337","udp%3A%2F%2Ftracker.coppersurfer.tk%3A6969","udp%3A%2F%2Fexodus.desync.com%3A6969"],"infoHash":"50dbd1581752d46908eeb2e573aaaf674ef35784","infoHashBuffer":{"type":"Buffer","data":[80,219,209,88,23,82,212,105,8,238,178,229,115,170,175,103,78,243,87,132]},"announce":[],"urlList":[]}}